<svg style="display: none;" aria-hidden="true" xmlns="http://www.w3.org/2000/svg" xmlns:xlink="http://www.w3.org/1999/xlink"><symbol viewBox="0 0 26 30" id="svg-android" xmlns="http://www.w3.org/2000/svg"><path d="M2.16466 9.71753C1.64776 9.71753 1.20919 9.89778.848682 10.2583.488171 10.6188.307861 11.0514.307861 11.5563V19.3087C.307861 19.8262.488117 20.2644.848682 20.625 1.20919 20.9855 1.64776 21.1658 2.16466 21.1658 2.68118 21.1658 3.11709 20.9855 3.47202 20.625 3.82624 20.2644 4.00383 19.8262 4.00383 19.3087V11.5563C4.00383 11.0514 3.82358 10.6188 3.46301 10.2583 3.10245 9.89778 2.66957 9.71753 2.16466 9.71753ZM17.0927 2.75818 18.3727.396789C18.4568.240455 18.4269.120574 18.2828.0362778 18.1264-.0364103 18.0063.000421913 17.9223.144171L16.6243 2.52443C15.4822 2.01947 14.2742 1.76653 13.0004 1.76653 11.7263 1.76653 10.5182 2.01952 9.37651 2.52443L8.07849.144171C7.99414.000421913 7.87399-.0360849 7.71798.0362778 7.57358.120954 7.54369.240455 7.62804.396789L8.90816 2.75818C7.61014 3.42013 6.57634 4.34202 5.80715 5.52586 5.03796 6.71035 4.6532 8.00474 4.6532 9.4113H21.3295C21.3295 8.00506 20.9447 6.71062 20.1755 5.52586 19.4063 4.34202 18.3784 3.42013 17.0927 2.75818ZM9.69189 6.19285C9.55346 6.33161 9.38812 6.40066 9.19593 6.40066 9.00336 6.40066 8.84139 6.33161 8.70925 6.19285 8.57711 6.05474 8.51104 5.89006 8.51104 5.69722 8.51104 5.50503 8.57711 5.34001 8.70925 5.20158 8.84139 5.06347 9.00374 4.99442 9.19593 4.99442 9.38812 4.99442 9.55346 5.06347 9.69189 5.20158 9.83 5.34034 9.89938 5.50503 9.89938 5.69722 9.899 5.88973 9.82967 6.05474 9.69189 6.19285ZM17.2908 6.19285C17.1584 6.33161 16.9961 6.40066 16.8042 6.40066 16.6116 6.40066 16.4463 6.33161 16.3081 6.19285 16.1698 6.05474 16.1007 5.89006 16.1007 5.69722 16.1007 5.50503 16.1698 5.34001 16.3081 5.20158 16.4463 5.06347 16.6116 4.99442 16.8042 4.99442 16.9964 4.99442 17.1584 5.06347 17.2908 5.20158 17.4231 5.34034 17.489 5.50503 17.489 5.69722 17.489 5.88973 17.423 6.05474 17.2908 6.19285ZM4.72485 22.067C4.72485 22.6204 4.91704 23.0889 5.30148 23.4733 5.68623 23.8577 6.15469 24.0499 6.70772 24.0499H8.04193L8.06021 28.1429C8.06021 28.6598 8.24046 29.0987 8.60097 29.4592 8.96148 29.8198 9.39441 30 9.899 30 10.4156 30 10.8544 29.8198 11.215 29.4592 11.5755 29.0987 11.7558 28.6598 11.7558 28.1429V24.0503H14.2437V28.1429C14.2437 28.6598 14.4239 29.0987 14.7845 29.4592 15.145 29.8198 15.5835 30 16.1004 30 16.617 30 17.0558 29.8198 17.4164 29.4592 17.777 29.0987 17.9572 28.6598 17.9572 28.1429V24.0503H19.3094C19.8502 24.0503 20.3126 23.8581 20.6977 23.4736 21.0821 23.0892 21.2744 22.6207 21.2744 22.0674V10.0597H4.72485V22.067ZM23.8355 9.71753C23.3306 9.71753 22.898 9.89513 22.5375 10.2493 22.177 10.6042 21.9967 11.0401 21.9967 11.5563V19.3087C21.9967 19.8262 22.1769 20.2644 22.5375 20.625 22.898 20.9855 23.3309 21.1658 23.8355 21.1658 24.3521 21.1658 24.791 20.9855 25.1515 20.625 25.5121 20.2644 25.6923 19.8262 25.6923 19.3087V11.5563C25.6923 11.0401 25.5121 10.6042 25.1515 10.2493 24.791 9.89513 24.3521 9.71753 23.8355 9.71753Z"/></symbol><symbol viewBox="0 0 98 17" id="svg-arrow-next" xmlns="http://www.w3.org/2000/svg"><path d="M0 14H91.5L79.5 2" stroke-width="5"/></symbol><symbol viewBox="0 0 99 17" id="svg-arrow-prev" xmlns="http://www.w3.org/2000/svg"><path opacity=".2" d="M98.5 14H7L19 2" stroke-width="5"/></symbol><symbol viewBox="0 0 30 30" id="svg-arrow-right" xmlns="http://www.w3.org/2000/svg"><circle cx="15" cy="15" r="14" transform="rotate(180 15 15)" stroke-width="2"/><path d="M12.7502 21.0001L18.7931 14.9572C19.1837 14.5667 19.1837 13.9335 18.7931 13.543L12.7502 7.50012" stroke-width="2" stroke-linecap="round"/><defs><linearGradient id="da" x1="0" y1="0" x2="30" y2="30" gradientUnits="userSpaceOnUse"><stop stop-color="#FCCF31"/><stop offset="1" stop-color="#F55555"/></linearGradient><linearGradient id="db" x1="19.5" y1="21" x2="8.7" y2="15.6" gradientUnits="userSpaceOnUse"><stop stop-color="#FCCF31"/><stop offset="1" stop-color="#F55555"/></linearGradient></defs></symbol><symbol viewBox="0 0 6 31" id="svg-arrow-scroll" xmlns="http://www.w3.org/2000/svg"><path d="M3.5 0.5C3.5 0.223858 3.27614 0 3 0C2.72386 0 2.5 0.223858 2.5 0.5H3.5ZM3 31L5.88675 26H0.113249L3 31ZM2.5 0.5V26.5H3.5V0.5H2.5Z"/></symbol><symbol viewBox="0 0 20 24" id="svg-dock" xmlns="http://www.w3.org/2000/svg"><path d="M5.06961 15.4407C5.06961 15.0421 4.79304 14.8044 4.30507 14.8044 4.1058 14.8044 3.97085 14.8241 3.90027 14.8429V16.1217C3.98385 16.1405 4.08659 16.1468 4.22821 16.1468 4.74834 16.1468 5.06961 15.884 5.06961 15.4407ZM8.09037 14.8181C7.87184 14.8181 7.73062 14.837 7.64709 14.8565V17.6887C7.73067 17.7083 7.86562 17.7083 7.98763 17.7083 8.87412 17.7146 9.4523 17.2266 9.4523 16.1926 9.45857 15.2935 8.93172 14.8181 8.09037 14.8181Z"/><path d="M13.7029 0H4.06351C2.65529 0 1.50915 1.14694 1.50915 2.55436V12H1.25966C0.691292 12 0.230347 12.4604 0.230347 13.0293V19.2717C0.230347 19.8405 0.691242 20.3009 1.25966 20.3009H1.50915V21.4456C1.50915 22.8546 2.65529 24 4.06351 24H17.216C18.6233 24 19.7696 22.8545 19.7696 21.4456V6.0455L13.7029 0ZM2.93066 14.1558C3.23231 14.1049 3.65632 14.0664 4.25371 14.0664C4.85742 14.0664 5.2877 14.1817 5.57681 14.4131C5.85298 14.6313 6.03935 14.9913 6.03935 15.415C6.03935 15.8386 5.89813 16.1988 5.64117 16.4427C5.30696 16.7573 4.81272 16.8986 4.23454 16.8986C4.10587 16.8986 3.99053 16.8922 3.90033 16.8797V18.4276H2.93066V14.1558ZM17.216 22.4356H4.06351C3.51824 22.4356 3.07422 21.9916 3.07422 21.4456V20.3009H15.3351C15.9035 20.3009 16.3644 19.8405 16.3644 19.2717V13.0293C16.3644 12.4604 15.9035 12 15.3351 12H3.07422V2.55436C3.07422 2.00989 3.51829 1.56587 4.06351 1.56587L13.1176 1.55641V4.90314C13.1176 5.88068 13.9108 6.67459 14.8891 6.67459L18.1676 6.66518L18.2045 21.4455C18.2045 21.9916 17.7612 22.4356 17.216 22.4356ZM6.66461 18.408V14.1558C7.02426 14.0986 7.49302 14.0664 7.98771 14.0664C8.80985 14.0664 9.34297 14.2139 9.76071 14.5285C10.2103 14.8627 10.4926 15.3954 10.4926 16.1603C10.4926 16.9887 10.191 17.5607 9.7732 17.9136C9.31738 18.2925 8.62353 18.4722 7.77586 18.4722C7.26822 18.4722 6.90857 18.4401 6.66461 18.408ZM13.6747 15.8905V16.6867H12.1201V18.4276H11.1375V14.0986H13.7837V14.9011H12.1201V15.8905H13.6747Z"/></symbol><symbol viewBox="0 0 30 30" id="svg-size" xmlns="http://www.w3.org/2000/svg"><g clip-path="url(#ga)"><path d="M29.725 25.5874L26.9125 22.7749C26.3212 22.1837 25.3125 22.6049 25.3125 23.4374V24.9999H4.99997V4.68743H6.56247C7.39872 4.68743 7.81497 3.67493 7.22497 3.08743L4.41247 0.274932C4.04622 -0.0913184 3.45247 -0.0913184 3.08622 0.274932L0.27497 3.08743C-0.31378 3.67493 0.10247 4.68743 0.93747 4.68743H2.49997V24.9999H1.24997C0.558721 24.9999 -2.95801e-05 25.5599 -2.95801e-05 26.2499C-2.95801e-05 26.9399 0.558721 27.4999 1.24997 27.4999H2.49997V28.7499C2.49997 29.4399 3.05872 29.9999 3.74997 29.9999C4.44122 29.9999 4.99997 29.4399 4.99997 28.7499V27.4999H25.3125V29.0624C25.3125 29.8987 26.3262 30.3112 26.9125 29.7249L29.725 26.9124C30.0912 26.5462 30.0912 25.9537 29.725 25.5874Z"/><path d="M16.25 5 25 8.75 16.25 12.5 7.5 8.75 16.25 5ZM15 14.6837 7.5 11.47V18.75C7.5 19.0087 7.65875 19.2412 7.9 19.3337L15 22.0637V14.6837ZM17.5 14.6837V22.0637L24.6 19.3325C24.8413 19.2412 25 19.0087 25 18.75V11.47L17.5 14.6837Z"/></g><defs><clipPath id="ga"><path d="M0 0H30V30H0z"/></clipPath></defs></symbol><symbol viewBox="0 0 30 30" id="svg-sound" xmlns="http://www.w3.org/2000/svg"><g clip-path="url(#ha)"><path d="M1.5383 20.3847C.688723 20.3847 0 19.6966 0 18.8464V11.1549C0 10.3053.688723 9.61658 1.5383 9.61658 2.38787 9.61658 3.0766 10.3053 3.0766 11.1549V18.8464C3.0766 19.6947 2.38787 20.3847 1.5383 20.3847ZM6.0256 24.231C5.17603 24.231 4.4873 23.5423 4.4873 22.6927V7.30722C4.4873 6.45764 5.17603 5.76892 6.0256 5.76892 6.87518 5.76892 7.5639 6.45764 7.5639 7.30722V22.6927C7.56454 23.5423 6.87518 24.231 6.0256 24.231ZM10.5127 22.3072C9.66309 22.3072 8.97437 21.6185 8.97437 20.7689V9.23105C8.97437 8.38147 9.66309 7.69275 10.5127 7.69275 11.3622 7.69275 12.0516 8.38147 12.0516 9.23105V20.7689C12.051 21.6185 11.3622 22.3072 10.5127 22.3072ZM15 26.1543C14.1504 26.1543 13.4617 25.4662 13.4617 24.616V5.38473C13.4617 4.53516 14.1504 3.84644 15 3.84644 15.8495 3.84644 16.5383 4.53516 16.5383 5.38473V24.6154C16.5383 25.4656 15.8495 26.1543 15 26.1543ZM19.4865 30C18.6376 30 17.9482 29.3113 17.9482 28.4617V1.5383C17.9482.688723 18.6376 0 19.4865 0 20.3368 0 21.0248.688723 21.0248 1.5383V28.4617C21.0248 29.3113 20.3368 30 19.4865 30ZM23.9751 24.231C23.1249 24.231 22.4368 23.5423 22.4368 22.6927V7.30722C22.4368 6.45764 23.1249 5.76892 23.9751 5.76892 24.824 5.76892 25.5134 6.45764 25.5134 7.30722V22.6927C25.5134 23.5423 24.824 24.231 23.9751 24.231ZM28.4616 18.4615C27.6121 18.4615 26.9233 17.7728 26.9233 16.9239V13.0775C26.9233 12.2279 27.6121 11.5392 28.4616 11.5392 29.3112 11.5392 29.9999 12.2279 29.9999 13.0775V16.9239C29.9999 17.7728 29.3112 18.4615 28.4616 18.4615Z"/></g><defs><clipPath id="ha"><path d="M0 0H30V30H0z"/></clipPath></defs></symbol><symbol viewBox="0 0 32 18" id="svg-spoiler-arrow" xmlns="http://www.w3.org/2000/svg"><path d="M2 2L15.2929 15.2929C15.6834 15.6834 16.3166 15.6834 16.7071 15.2929L30 2" stroke-width="4" stroke-linecap="round"/></symbol></svg>